<?xml version="1.0" encoding="utf-8"?>
<!DOCTYPE svg PUBLIC "-//W3C//DTD SVG 1.1//EN" "http://www.w3.org/Graphics/SVG/1.1/DTD/svg11.dtd">
<svg version="1.1" xmlns="http://www.w3.org/2000/svg" xmlns:xlink="http://www.w3.org/1999/xlink" width="16" height="16" viewBox="0 0 16 16">
<path d="M15 16h-8q-0.422 0-0.711-0.289t-0.289-0.711v-1h-1q-0.422 0-0.711-0.297t-0.289-0.703v-1h-1q-0.422 0-0.711-0.297t-0.289-0.703v-1h-1q-0.422 0-0.711-0.297t-0.289-0.703v-8q0-0.422 0.289-0.711t0.711-0.289h8q0.422 0 0.711 0.289t0.289 0.711v1h1q0.422 0 0.711 0.289t0.289 0.711v1h1q0.406 0 0.703 0.289t0.297 0.711v1h1q0.422 0 0.711 0.289t0.289 0.711v8q0 0.406-0.289 0.703t-0.711 0.297zM9 1h-8v8h1v-6q0-0.422 0.289-0.711t0.711-0.289h6v-1zM11 3h-8v8h1v-6q0-0.422 0.289-0.711t0.711-0.289h6v-1zM13 5h-8v8h1v-6q0-0.422 0.289-0.711t0.711-0.289h6v-1zM15 7h-8v8h8v-8z"></path>
</svg>
